<svg viewBox="0 0 100 100" fill="none" xmlns="http://www.w3.org/2000/svg">
  <!-- Book Left Page -->
  <path d="M50 75 Q30 60 10 70 L20 35 Q40 30 50 50 Z" fill="#312e81" />
  
  <!-- Book Right Page -->
  <path d="M50 75 Q70 60 90 70 L80 35 Q60 30 50 50 Z" fill="#3730a3" />
  
  <!-- Book Bottom Flaps -->
  <path d="M10 76 Q30 66 50 82 Q30 74 10 82 Z" fill="#4338ca" />
  <path d="M90 76 Q70 66 50 82 Q70 74 90 82 Z" fill="#4f46e5" />

  <!-- Person Head -->
  <circle cx="45" cy="25" r="6" fill="#14b8a6" />
  
  <!-- Arrow Body -->
  <path 
    d="M 45 36 C 30 45, 35 65, 45 68 C 55 70, 65 50, 75 35 L 82 24" 
    stroke="#14b8a6" 
    stroke-width="8" 
    stroke-linecap="round" 
    fill="none" 
  />
  
  <!-- Arrow Head -->
  <path 
    d="M 70 20 L 92 5 L 88 28 Z" 
    fill="#14b8a6" 
    stroke="#14b8a6"
    stroke-width="2"
    stroke-linejoin="round"
  />
</svg>
